<svg xmlns="http://www.w3.org/2000/svg" xmlns:xlink="http://www.w3.org/1999/xlink" width="40" height="40" viewBox="0 0 40 40">
  <defs>
    <clipPath id="clip-path">
      <rect id="Rettangolo_1394" data-name="Rettangolo 1394" width="40" height="40" transform="translate(-0.313 -0.26)" fill="#fff"/>
    </clipPath>
  </defs>
  <g id="Gruppo_di_maschere_1" data-name="Gruppo di maschere 1" transform="translate(0.313 0.26)" clip-path="url(#clip-path)">
    <g id="_291716_github_logo_social_network_social_icon" data-name="291716_github_logo_social network_social_icon" transform="translate(0.195 0.294)">
      <path id="Tracciato_26" data-name="Tracciato 26" d="M22.547,26.966c3.8-.449,7.838-1.83,7.838-8.39a6.586,6.586,0,0,0-1.726-4.558A6.156,6.156,0,0,0,28.45,9.53s-1.381-.449-4.626,1.726a16.728,16.728,0,0,0-4.316-.622,16.314,16.314,0,0,0-4.317.622c-3.28-2.175-4.661-1.726-4.661-1.726a6.157,6.157,0,0,0-.207,4.488A6.581,6.581,0,0,0,8.6,18.576c0,6.56,4.04,7.941,7.838,8.39a3.829,3.829,0,0,0-1.1,2.314,3.684,3.684,0,0,1-5.007-1.416,3.52,3.52,0,0,0-2.59-1.726S6.042,26.1,7.6,27.173a4.4,4.4,0,0,1,1.9,2.486s1.035,3.281,5.8,2.245v2.935c0,.45-.345.967-1.208.829a17.04,17.04,0,1,1,10.807,0c-.864.173-1.209-.345-1.209-.829V30.109a3.99,3.99,0,0,0-1.139-3.143Zm16.436-7.457A19.491,19.491,0,1,0,19.509,38.982,19.5,19.5,0,0,0,38.982,19.509Z" fill="#fff" fill-rule="evenodd"/>
    </g>
  </g>
</svg>
