<svg xmlns="http://www.w3.org/2000/svg" xmlns:xlink="http://www.w3.org/1999/xlink" width="40" height="39" viewBox="0 0 40 39">
  <defs>
    <clipPath id="clip-path">
      <rect id="Rettangolo_1396" data-name="Rettangolo 1396" width="40" height="39" transform="translate(-0.313 0.124)" fill="#fff"/>
    </clipPath>
  </defs>
  <g id="Gruppo_di_maschere_3" data-name="Gruppo di maschere 3" transform="translate(0.313 -0.124)" clip-path="url(#clip-path)">
    <g id="_1161953_instagram_icon" data-name="1161953_instagram_icon" transform="translate(0.195 -0.049)">
      <path id="Tracciato_28" data-name="Tracciato 28" d="M31.794,23.569a10.06,10.06,0,1,0,10.06,10.06A10.079,10.079,0,0,0,31.794,23.569Zm0,16.5a6.445,6.445,0,1,1,6.445-6.445A6.474,6.474,0,0,1,31.794,40.073Z" transform="translate(-12.303 -14.216)" fill="#fff"/>
      <circle id="Ellisse_3" data-name="Ellisse 3" cx="2.279" cy="2.279" r="2.279" transform="translate(27.665 6.838)" fill="#fff"/>
      <path id="Tracciato_29" data-name="Tracciato 29" d="M40.637,10a11.193,11.193,0,0,0-8.252-3.222H16.194c-6.838,0-11.4,4.558-11.4,11.4V34.282a11.309,11.309,0,0,0,3.3,8.409,11.47,11.47,0,0,0,8.174,3.065H32.306a11.605,11.605,0,0,0,8.252-3.065,11.252,11.252,0,0,0,3.222-8.331V18.17A11.267,11.267,0,0,0,40.637,10ZM40.323,34.36A7.68,7.68,0,0,1,38.043,40.1a8.124,8.124,0,0,1-5.737,2.043H16.273A8.124,8.124,0,0,1,10.536,40.1a7.9,7.9,0,0,1-2.122-5.816V18.17a7.835,7.835,0,0,1,2.122-5.737,7.992,7.992,0,0,1,5.737-2.043h16.19A7.835,7.835,0,0,1,38.2,12.512a8.11,8.11,0,0,1,2.122,5.659V34.36Z" transform="translate(-4.798 -6.774)" fill="#fff"/>
    </g>
  </g>
</svg>
