<svg xmlns="http://www.w3.org/2000/svg" xmlns:xlink="http://www.w3.org/1999/xlink" width="40" height="40" viewBox="0 0 40 40">
  <defs>
    <clipPath id="clip-path">
      <rect id="Rettangolo_1397" data-name="Rettangolo 1397" width="40" height="40" transform="translate(-0.313 -0.367)" fill="#fff"/>
    </clipPath>
  </defs>
  <g id="Gruppo_di_maschere_4" data-name="Gruppo di maschere 4" transform="translate(0.313 0.367)" clip-path="url(#clip-path)">
    <g id="start2impact" transform="translate(0.195 0.098)">
      <path id="Tracciato_30" data-name="Tracciato 30" d="M36.146,1.242a4.439,4.439,0,0,0-1.069.253c-.111.043-1.773.7-3.691,1.455L27.9,4.327l-.362-.155a18.88,18.88,0,0,0-6.512-1.508c-.492-.026-1.845-.01-2.3.026A18.787,18.787,0,0,0,1.457,19.065a16.815,16.815,0,0,0-.144,2.371,17.23,17.23,0,0,0,.154,2.442A18.716,18.716,0,0,0,4.4,31.764c.113.173.21.313.215.313a.872.872,0,0,0,.1-.142,15.778,15.778,0,0,0,2.1-4.5A12.648,12.648,0,0,0,7.187,25.6,7.574,7.574,0,0,1,8.61,22.267a7.9,7.9,0,0,1,1.5-1.5,7.657,7.657,0,0,1,7.028-1.124A7.6,7.6,0,0,1,20.282,32a7.659,7.659,0,0,1-4.752,2.407,10.888,10.888,0,0,0-1.691.383,15.542,15.542,0,0,0-3.5,1.553c-.3.181-.888.56-.888.574s.676.451.974.629a18.749,18.749,0,0,0,7.336,2.531,16.059,16.059,0,0,0,2.34.138,16.059,16.059,0,0,0,2.34-.138A18.8,18.8,0,0,0,37.323,13.91l-.12-.273,1.424-3.612c.784-1.986,1.45-3.684,1.479-3.773a4.126,4.126,0,0,0,.164-.723,4.782,4.782,0,0,0,.009-.883,3.88,3.88,0,0,0-3.838-3.413c-.13,0-.263.005-.3.009Zm.613,1.875a2.085,2.085,0,0,1,1.547,1.288,1.845,1.845,0,0,1,.133.719,1.883,1.883,0,0,1-.123.714c-.063.176-7.8,19.736-7.875,19.91a2.016,2.016,0,0,1-.27.432,2.04,2.04,0,0,1-1.792.741,2,2,0,0,1-1.553-.972c-.038-.063-.487-1-1-2.089s-.982-2.077-1.049-2.2a11.608,11.608,0,0,0-4.3-4.565,30.851,30.851,0,0,0-2.84-1.4c-1.088-.512-2.033-.965-2.1-1.008A2.052,2.052,0,0,1,14.67,12.4a2.415,2.415,0,0,1,.282-.615,2.187,2.187,0,0,1,.787-.673c.149-.07,19.884-7.877,20.053-7.934a2.329,2.329,0,0,1,.239-.06,2.8,2.8,0,0,1,.728,0Z" transform="translate(-1.314 -1.234)" fill="#fff"/>
      <path id="Tracciato_31" data-name="Tracciato 31" d="M7.345,46.263a.867.867,0,0,1-.1.142l1.863,2.331,2.972,2.51c0-.014.586-.393.888-.574a15.539,15.539,0,0,1,3.5-1.553,10.9,10.9,0,0,1,1.691-.383,7.658,7.658,0,0,0,4.752-2.406A7.611,7.611,0,0,0,12.735,35.093a7.9,7.9,0,0,0-1.5,1.5,7.573,7.573,0,0,0-1.423,3.331,12.644,12.644,0,0,1-.371,1.833,15.778,15.778,0,0,1-2.1,4.5Z" transform="translate(-3.941 -15.562)" fill="#ffcb00"/>
      <path id="Tracciato_32" data-name="Tracciato 32" d="M47.328,4.6a2.085,2.085,0,0,1,1.547,1.288,1.846,1.846,0,0,1,.133.719,1.883,1.883,0,0,1-.123.714c-.063.176-7.8,19.736-7.875,19.91a2.016,2.016,0,0,1-.27.432,2.04,2.04,0,0,1-1.792.741A2,2,0,0,1,37.4,27.43c-.038-.063-.487-1-1-2.089s-.982-2.077-1.049-2.2a11.608,11.608,0,0,0-4.3-4.565,30.851,30.851,0,0,0-2.84-1.4c-1.088-.512-2.033-.965-2.1-1.008a2.052,2.052,0,0,1-.871-2.284,2.417,2.417,0,0,1,.282-.615,2.186,2.186,0,0,1,.787-.673c.149-.07,19.884-7.877,20.053-7.934A2.329,2.329,0,0,1,46.6,4.6,2.807,2.807,0,0,1,47.328,4.6Z" transform="translate(-11.883 -2.714)" fill="#68d072"/>
      <path id="Tracciato_33" data-name="Tracciato 33" d="M48.976,14.682A3.317,3.317,0,0,0,46,17.607a4.9,4.9,0,0,0,.024.941,3.319,3.319,0,1,0,2.953-3.867Zm.688,1.86a1.486,1.486,0,0,1-.217,2.919,1.477,1.477,0,0,1-1.163-.391,1.446,1.446,0,0,1-.473-1.079,1.413,1.413,0,0,1,.4-1.016,1.483,1.483,0,0,1,.873-.466A1.813,1.813,0,0,1,49.664,16.542Z" transform="translate(-21.108 -7.186)"/>
      <path id="Tracciato_34" data-name="Tracciato 34" d="M51.116,18a1.486,1.486,0,0,1-.217,2.919,1.477,1.477,0,0,1-1.163-.391,1.446,1.446,0,0,1-.473-1.079,1.413,1.413,0,0,1,.4-1.016,1.482,1.482,0,0,1,.873-.466A1.813,1.813,0,0,1,51.116,18Z" transform="translate(-22.56 -8.643)" fill="#fff"/>
      <path id="Tracciato_35" data-name="Tracciato 35" d="M14.792,42.229a2.421,2.421,0,0,0-1.447.828,4.54,4.54,0,0,0-.927,1.6,4.218,4.218,0,0,0-.225,1.4,4.144,4.144,0,0,0,.09.948l.05.239L10.384,49.2,8.435,51.148l.159.195c.27.333.552.661.8.927l.094.1,1.792-1.792,1.792-1.792.029.043a4.888,4.888,0,0,0,.8.823l.162.125-1.792,1.793-1.792,1.793.094.085c.381.343,1.023.885,1.114.938.017.01.567-.528,1.973-1.933L15.6,50.508l.178.039a3.96,3.96,0,0,0,.975.1,4.138,4.138,0,0,0,1.443-.229,4.5,4.5,0,0,0,1.718-1.057,2.291,2.291,0,0,0,.673-1.2,3.272,3.272,0,0,0,.027-.787,2.3,2.3,0,0,0-1.732-1.921,2.827,2.827,0,0,0-.929-.034,2.3,2.3,0,0,0-.681.232l-.19.1.075-.13a2.342,2.342,0,0,0,.219-1.682,2.289,2.289,0,0,0-1.887-1.71,2.669,2.669,0,0,0-.7,0Zm.593,1.614a.688.688,0,0,1,.4.376.773.773,0,0,1,0,.567,2.522,2.522,0,0,1-1.312.933,4.094,4.094,0,0,1-.593.132c-.08.01-.082.01-.082-.038a3.093,3.093,0,0,1,.3-1.05,2.531,2.531,0,0,1,.707-.874A.718.718,0,0,1,15.385,43.843Zm.864,2.753c-.007.012-.065.1-.126.193a4.38,4.38,0,0,0-.681,1.728,1.591,1.591,0,0,1-.043.207,2.269,2.269,0,0,1-.427-.263,2.961,2.961,0,0,1-.8-.91.85.85,0,0,1-.058-.113s.085-.017.184-.032a4.5,4.5,0,0,0,1.792-.712c.186-.13.179-.125.161-.1Zm2.254.415a.636.636,0,0,1,.331.19.69.69,0,0,1,.128.8,1.932,1.932,0,0,1-.482.482,3.038,3.038,0,0,1-1.385.543l-.113.01L17,48.923a2.939,2.939,0,0,1,.453-1.245,2.647,2.647,0,0,1,.47-.548.673.673,0,0,1,.582-.118Z" transform="translate(-4.469 -19.389)"/>
    </g>
  </g>
</svg>
